<?xml version="1.0" encoding="utf-8"?>
<!-- Generator: Adobe Illustrator 19.0.0, SVG Export Plug-In . SVG Version: 6.00 Build 0)  -->
<svg version="1.1" id="Layer_1" xmlns="http://www.w3.org/2000/svg" xmlns:xlink="http://www.w3.org/1999/xlink" x="0px" y="0px"
	 viewBox="-180 378 250 37" style="enable-background:new -180 378 250 37;" xml:space="preserve">
<style type="text/css">
	.st0{fill:#1A6785;}
	.st1{fill:#3ABFC0;}
</style>
<g>
	<path class="st0" d="M-54.7,378.9c41.2,0,82.4,0,123.6,0c0.7,0,0.9,0.1,0.9,0.9c0,11.2,0,22.3,0,33.5c0,0.7-0.2,0.8-0.9,0.8
		c-82.1,0-164.2,0-246.2,0c-0.7,0-1.5,0.3-1.9-0.1c-0.3-0.4-0.1-1.2-0.1-1.8c0-10.8,0-21.6,0-32.3c0-0.7,0.2-0.8,0.9-0.8
		C-137.2,378.9-96,378.9-54.7,378.9z M-54.8,380.1c-40.7,0-81.4,0-122.1,0c-1.2,0-1.2,0-1.2,1.1c0,9.9,0,19.8,0,29.7
		c0,1.8,0,1.8,1.9,1.8c81.3,0,162.5,0,243.8,0c1.1,0,1,0.2,1-1c0-10.2,0-20.4,0-30.7c0-1.2,0.1-1-1-1
		C26.7,380.1-14.1,380.1-54.8,380.1z"/>
	<path class="st0" d="M-136.5,391.7c0,0.2,0,0.3,0,0.5c0,0,0,0,0,0c0,0,0,0.1,0.1,0.1c0.1,0.4,0.4,0.3,0.7,0.3c0.9,0,1.9,0,2.8,0
		c0.5,0.1,0.8-0.1,0.8-0.6c0-0.9,0-1.7,0-2.6c0,0,0,0,0,0c0.1,0,0.1,0,0.2,0c0.4,0,0.9,0,1.3,0c0.9,0,1.4,0.4,1.5,1.2
		c0,0.4,0,0.8,0,1.1c0,0.3-0.2,0.7,0.3,0.8c0.4,0.1,0.5-0.3,0.6-0.6c0.7-1.4,1.7-2.6,2.9-3.6c1.7-1.4,3.6-2.3,5.8-2.5
		c2-0.2,4.5,0.7,5.3,2.4c0.6,1.2,0.4,2.4,0.2,3.6c-0.2,0.6,0,0.8,0.6,0.8c3.7,0,7.4,0,11.1,0c0.6,0,0.9-0.2,0.8-0.8
		c0-0.9,0.4-2-0.1-2.5c-0.5-0.6-1.7-0.2-2.5-0.2c-1.4,0-2.9-0.2-4.3,0c-1.5,0.3-2-0.8-2.8-1.5c-0.1-0.1-0.2-0.3-0.1-0.5
		c0.2-0.5,1.2-1.1,1.8-1.1c2.5,0,5,0.1,7.5,0c2.2-0.1,3.7,1.3,3.8,3.6c0,0.7,0.1,1.4,0,2.1c-0.1,0.7,0.2,0.9,0.9,0.8
		c0.7,0,1.4,0,2,0c0.7,0.1,0.9-0.3,0.9-0.9c0-2.7,0-5.4,0-8.1c0-0.7,0.2-0.9,0.9-0.8c0.3,0,0.5,0,0.8,0c0.9,0,1.4,0.5,1.4,1.4
		c0,2.8,0,5.7,0,8.5c0,1-1,2.3-2,2.7c-0.7,0.2-1.5,0.4-2.3,0.4c-13.2,0-26.4,0-39.6,0c-1.6,0-2.9-0.4-3.7-1.9
		c-0.2-0.5-0.3-0.9-0.3-1.4c0-2.8,0-5.7,0-8.5c0-1.1,0-1.1,1.1-1.1c0.5,0,1-0.1,1.5,0.3c0.2,0.2,0.4,0.5,0.4,0.8c0,2,0,4.1,0,6.1
		C-136.6,390.5-136.7,391.1-136.5,391.7z M-121.5,392.6C-121.5,392.6-121.5,392.6-121.5,392.6c0.7,0,1.4,0,2.1,0
		c1.4,0,1.8-0.3,2.2-1.7c0.4-1.4-0.1-2.1-1.6-2.1c-2.5,0-4.3,1.4-5.8,3.1c-0.3,0.4-0.2,0.7,0.3,0.7
		C-123.4,392.6-122.5,392.6-121.5,392.6z"/>
	<path class="st0" d="M-161.4,388.4c0,1.7,0,3.4,0,5.1c0,0.6,0.2,0.7,0.8,0.7c1.7,0,3.4,0,5.1,0c3.5,0,6,1.7,7.6,4.6
		c1.1,2,1.3,4.2,0.6,6.4c-0.1,0.5-0.5,0.9-0.5,1.4c0,0.4-0.3,0.3-0.5,0.1c-1.4-1.1-3-1.8-4.5-2.7c-0.3-0.2-0.3-0.3-0.2-0.6
		c0.4-1.8-0.8-3.4-2.7-3.4c-1.6,0-3.2,0-4.8,0c-0.6,0-0.8,0.2-0.8,0.8c0,3.3,0,6.5,0,9.8c0,0.5-0.1,0.7-0.7,0.7
		c-0.9-0.1-1.8,0-2.6,0c-1.9,0-3.5-1.5-3.5-3.5c0-7.4,0-14.9,0-22.3c0-0.8,0-1.6,0-2.4c0-0.3,0.1-0.4,0.4-0.4c2,0,3.9,0,5.9,0
		c0.5,0,0.5,0.3,0.5,0.6C-161.4,385-161.4,386.7-161.4,388.4C-161.4,388.4-161.4,388.4-161.4,388.4z"/>
	<path class="st1" d="M27.4,393.4c3.4,0,6.8,0,10.2,0c1,0,1.1-0.2,0.7-1.1c-0.5-1.3-1.9-2-3.3-1.8c-0.9,0.2-1.2-0.4-1.7-0.9
		c-0.2-0.2-0.1-0.5,0.2-0.6c1.4-0.7,2.7-0.7,4.1-0.1c1.4,0.6,2.3,1.6,2.6,3.1c0.1,0.3,0.3,0.7,0.4,1c0,0.3,0.2,0.3,0.5,0.3
		c0.8,0,1.5,0,2.3,0c0.7,0,0.9-0.5,1-1.1c0.1-0.9,0.1-1.7,0-2.6c0-0.7,0.3-0.9,0.9-0.8c0.5,0,1.1-0.1,1.1,0.8c-0.1,0.8,0,1.7,0,2.5
		c0,0.8,0.4,1.2,1.2,1.2c0.3,0,0.7,0,1,0c1,0,1.3-0.3,1.3-1.3c0-2.3,0-4.5,0-6.8c0-0.7,0.2-1,0.9-0.8c0.2,0,0.4,0,0.5,0
		c0.5-0.1,0.7,0.2,0.7,0.7c0,2.3,0,4.7,0,7c0,0.9,0.3,1.2,1.3,1.2c0.3,0,0.5,0,0.8,0c1,0,1.4-0.3,1.4-1.3c0-2.3,0-4.6,0-6.8
		c0-0.7,0.3-0.8,0.9-0.8c0.6,0,1.2-0.1,1.2,0.9c-0.1,2.3,0,4.5,0,6.8c0,1.3-0.5,2.4-1.8,3c-0.8,0.4-1.8,0.4-2.7,0.3
		c-0.6-0.1-1.3-0.1-1.8-0.5c-0.2-0.2-0.4-0.1-0.6,0c-1.7,0.8-3.3,0.8-5,0c-0.2-0.1-0.3-0.1-0.5,0c-0.8,0.4-1.6,0.5-2.5,0.5
		c-8.4,0-16.9,0-25.3,0c-2,0-3-0.9-2.9-2.8c0.1-2.4,0-4.8,0-7.2c0-1.1,0.8-0.7,1.3-0.8c0.7-0.1,0.7,0.3,0.7,0.8c0,2,0,4,0,6
		c0,0.5,0.2,1,0,1.5c-0.2,0.6,0.4,0.5,0.8,0.5C20.6,393.4,24,393.4,27.4,393.4z"/>
	<path class="st1" d="M-41.4,395.3c-4.6,0-9.2,0-13.8,0c-0.6,0-1,0.2-1.2,0.7c-0.7,1.4-1.9,2.2-3.4,2.6c-0.2,0.1-0.3-0.1-0.5-0.2
		c-0.4-0.4-0.4-0.9-0.5-1.3c0-0.2,0.1-0.3,0.3-0.4c0.7-0.1,1.1-0.5,1.6-0.8c0.2-0.1,0.4-0.2,0.4-0.4c0-0.2-0.3-0.2-0.5-0.2
		c-1-0.1-1.7-0.6-2.3-1.3c-0.8-1.1-1-2.4-0.3-3.7c0.6-1.2,1.6-1.9,3.1-1.7c1.8,0.2,2.5,1.3,2.7,2.9c0,0.1,0,0.2,0,0.2
		c0,1.7,0,1.7,1.8,1.7c1.5,0,3,0,4.5,0c0.9,0,1-0.1,0.7-0.9c-0.4-1.4-1.5-2-3.1-1.9c-0.8,0.1-1.3-0.1-1.8-0.8
		c-0.2-0.4-0.3-0.6,0-0.9c1.2-1.2,2.4-2.4,3.7-3.6c0.1-0.1,0.3-0.2,0.5-0.1c0.8,0.3,1,1.3,0.5,1.9c-0.4,0.4-0.7,0.7-1.1,1.1
		c-0.3,0.3-0.4,0.5,0.1,0.6c1.9,0.6,3,1.8,3.3,3.8c0.1,0.6,0.3,0.9,1,0.9c6,0,12,0,18,0c1.1,0,1.1,0,1.1-1.1c0-1.1,0-2.3,0-3.4
		c0-0.5,0.2-0.7,0.7-0.6c0.5,0.1,1.2-0.3,1.2,0.6c0,1.5,0,3.1,0,4.6c0,0.8-0.7,1.5-1.5,1.7c-0.4,0.1-0.9,0.2-1.3,0.2
		C-32.1,395.4-36.8,395.4-41.4,395.3C-41.4,395.4-41.4,395.3-41.4,395.3z M-58,392.1C-58,392.1-58,392.1-58,392.1c0-0.2,0-0.4,0-0.6
		c0-0.5-0.1-0.9-0.7-1c-0.5-0.1-1,0-1.3,0.5c-0.4,0.7-0.2,1.5,0.5,2.1c0.4,0.3,0.8,0.3,1.2,0.2c0.4-0.1,0.2-0.5,0.2-0.8
		C-58,392.4-58,392.2-58,392.1z"/>
	<path class="st1" d="M-157.7,382.7c1.7-0.1,3.3,0,4.9,0.5c2.4,0.8,4,2.4,5.1,4.6c0.7,1.5,0.9,3.1,0.7,4.7c-0.2,1.3-0.7,2.6-1.5,3.7
		c-0.2,0.3-0.4,0.3-0.6,0c-1.2-1.1-2.6-2-4.3-2.3c-0.6-0.1-0.3-0.4-0.1-0.7c0.9-1.3,0.9-2.2,0.1-3.3c-0.5-0.7-1.2-1.1-2.1-1.1
		c-1.5,0-3.1,0-4.6,0c-0.5,0-0.7-0.1-0.7-0.6c0-1.6,0-3.2,0-4.9c0-0.5,0.1-0.7,0.6-0.6C-159.4,382.7-158.5,382.7-157.7,382.7z"/>
	<path class="st0" d="M-87.6,388c0,1.3,0,2.5,0,3.8c0,0.5,0.1,0.8,0.8,0.8c1-0.1,2,0,3,0c0.5,0,0.7-0.2,0.7-0.7c0-1.6,0-3.1,0-4.7
		c0-0.7,0.1-0.9,0.9-0.9c1.6-0.1,2.2,0.7,2.1,2.1c-0.1,1.2-0.1,2.3,0,3.5c0.1,2.1-1.1,3.6-3.2,3.8c-1.7,0.1-3.4,0.3-5.1-0.2
		c-1.3-0.4-2.3-1.5-2.3-2.8c0-3.1,0-6.2,0-9.3c0-0.4,0.1-0.6,0.5-0.5c0.3,0,0.6,0,0.9,0c1,0,1.5,0.5,1.5,1.5
		C-87.6,385.5-87.6,386.7-87.6,388C-87.6,388-87.6,388-87.6,388z"/>
	<path class="st1" d="M-157.6,411.3c-0.9,0-1.8,0-2.6,0c-0.4,0-0.6-0.1-0.6-0.5c0-1.6,0-3.1,0-4.7c0-0.5,0.2-0.6,0.7-0.6
		c1.2,0,2.4,0,3.6,0c1,0,2-0.1,2.7-0.8c0.4-0.3,0.7-0.2,1.1,0c1.3,0.8,2.6,1.6,4,2.3c0.4,0.2,0.4,0.4,0.1,0.8
		c-1.6,2.1-3.7,3.3-6.4,3.5C-156,411.4-156.8,411.3-157.6,411.3C-157.6,411.3-157.6,411.3-157.6,411.3z"/>
	<path class="st1" d="M-74.9,397c0-4.5,0-8.9,0-13.4c0-0.3-0.1-0.8,0.3-0.9c0.5-0.1,1.1-0.2,1.6,0c0.2,0.1,0.2,0.5,0.2,0.7
		c0,1.8,0,3.5,0,5.3c0,7.2,0,14.3,0,21.5c0,0.3,0.2,0.8-0.2,0.9c-0.5,0.1-1.1,0.2-1.7-0.1c-0.3-0.1-0.1-0.5-0.1-0.8
		C-74.9,405.9-74.9,401.5-74.9,397z"/>
	<path class="st0" d="M-139.1,405.2c0-1.8,0-3.5,0-5.3c0-0.5,0.1-0.6,0.6-0.6c1.5,0,2.9,0,4.4,0c3,0.2,3.9,2.4,3,4.5
		c-0.2,0.5-0.6,0.8-1.1,1c-0.3,0.1-0.4,0.2-0.1,0.5c1.6,1.2,2,2.3,1.5,3.9c-0.5,1.4-1.8,1.9-3.2,2c-1.5,0.1-3.1,0-4.6,0
		c-0.5,0-0.5-0.3-0.5-0.6C-139.1,408.7-139.1,407-139.1,405.2C-139.1,405.2-139.1,405.2-139.1,405.2z M-135.4,409.4
		c0.4,0,0.9,0,1.3,0c0.1,0,0.2,0,0.2,0c0.9-0.1,1.4-0.7,1.5-1.5c0.1-1.2-0.3-1.8-1.2-2c-0.6-0.2-1.2-0.1-1.9-0.1
		c-1.9,0-1.9,0-1.9,1.8C-137.4,409.5-137.4,409.5-135.4,409.4z M-135.5,404.3c0.5,0,0.9,0,1.4,0c0.9,0,1.5-0.6,1.5-1.6
		c0-1-0.5-1.7-1.4-1.7c-0.6,0-1.2-0.1-1.8-0.1c-1.6,0-1.6,0-1.6,1.6C-137.4,404.3-137.4,404.3-135.5,404.3z"/>
	<path class="st1" d="M-18.6,395.3c-1.3,0-2.7,0-4,0c-0.6,0-0.9-0.1-0.8-0.8c0-0.1,0-0.2,0-0.3c-0.1-0.7,0.1-1,0.9-0.9
		c0.9,0.1,1.9,0,2.8,0c0.6,0,0.7-0.2,0.5-0.7c-0.3-0.7-0.7-1.4-1.4-1.9c-0.5-0.4-0.8-1.4-0.6-2c0.2-0.4,0.5-0.3,0.8-0.2
		c1.7,0.8,2.8,2.1,3.1,3.9c0.2,0.7,0.4,1,1.1,1c2.3,0,2.3,0,2.3-2.2c0-1.2,0-2.4-0.1-3.6c-0.1-0.9,0.1-1.8,0.1-2.6
		c0-0.2,0.1-0.4,0.4-0.4c0.1,0,0.2,0,0.3,0c1.3,0,1.3,0,1.3,1.2c0,2.1,0,4.1,0,6.2c0,0.6,0,1.2-0.1,1.7c-0.2,1-1.1,1.7-2.5,1.7
		C-15.8,395.4-17.2,395.4-18.6,395.3C-18.6,395.3-18.6,395.3-18.6,395.3z"/>
	<path class="st1" d="M-1.1,392.8c0,1,0,1.9-0.4,2.8c-0.6,1.6-1.8,2.5-3.5,2.9c-0.5,0.1-0.7,0-0.8-0.5c0-0.2-0.1-0.4-0.2-0.6
		c-0.2-0.4-0.1-0.7,0.4-0.8c0.5-0.1,1-0.4,1.4-0.7c0.2-0.1,0.4-0.3,0.3-0.5c-0.1-0.2-0.3-0.2-0.5-0.3c-1.2-0.1-1.9-0.8-2.4-1.6
		c-0.7-1.2-0.6-2.5,0.2-3.7c0.6-0.9,1.6-1.4,2.8-1.3c1.5,0.2,2.6,1.1,2.7,2.7C-1,391.7-1.1,392.3-1.1,392.8z M-3.1,392.3
		c0-0.3,0-0.5,0-0.7c0-0.6-0.2-1.1-0.9-1.2c-0.7,0-1.1,0.4-1.2,1c-0.1,0.6,0.1,1.1,0.6,1.5c0.4,0.3,0.9,0.5,1.4,0.3
		C-2.8,393.1-3.2,392.6-3.1,392.3z"/>
	<path class="st0" d="M-112.6,403.6c1.2-1.2,2.5-1,3.7-0.7c1,0.2,1.3,1.2,1.4,2.1c0.1,1.9,0.1,3.8,0.1,5.7c0,0.8-0.6,0.4-1,0.4
		c-0.4,0.1-0.7,0-0.7-0.5c0-1.6,0-3.2,0-4.9c0-0.7-0.3-1.2-0.9-1.4c-0.8-0.2-1.5-0.2-2.2,0.4c-0.3,0.3-0.3,0.7-0.3,1
		c0,1.6,0,3.1,0,4.7c0,0.7-0.4,0.7-0.9,0.7c-0.5,0-0.8,0-0.8-0.7c0-3.5,0.1-6.9,0-10.4c0-0.7,0.3-0.7,0.9-0.8c0.6,0,0.9,0.1,0.8,0.8
		C-112.7,401.2-112.6,402.3-112.6,403.6z"/>
	<path class="st0" d="M-124.2,407.6c-0.7,0-1.4,0-2.1,0c-0.5,0-0.7,0.1-0.5,0.6c0.5,1.5,2.3,1.5,3.5,1c0.5-0.2,1.1,0,1.4,0.5
		c0.2,0.5-0.3,0.6-0.5,0.7c-1.5,0.8-3,1-4.5,0.2c-0.7-0.4-1.2-1-1.3-1.7c-0.3-1.6-0.4-3.2,0.3-4.8c0.4-1,1.2-1.4,2.1-1.6
		c2.2-0.6,4.1,0.8,4.3,3c0.2,1.9,0.2,1.9-1.8,1.9C-123.7,407.6-124,407.6-124.2,407.6C-124.2,407.6-124.2,407.6-124.2,407.6z
		 M-125.1,406.1C-125.1,406.1-125.1,406.1-125.1,406.1c0.4,0,0.9,0,1.3,0c0.6,0.1,0.6-0.3,0.5-0.7c-0.2-0.8-1-1.4-1.8-1.4
		c-0.9,0.1-1.8,0.9-1.8,1.8c0,0.3,0.2,0.3,0.4,0.3C-126,406.1-125.6,406.1-125.1,406.1z"/>
	<path class="st0" d="M-80.8,407.9c0,0.8,0,1.6,0,2.4c0,0.3,0.2,0.7-0.2,0.7c-0.4,0.1-1,0.3-1.4-0.1c-0.2-0.3-0.4-0.2-0.6-0.1
		c-1.2,0.5-2.3,0.4-3.5,0c-0.7-0.3-1.1-0.8-1.2-1.5c-0.1-0.6-0.2-1.2,0.1-1.8c0.4-0.9,1.2-1.4,2.2-1.4c0.8,0,1.6,0,2.3,0
		c0.5,0,0.6-0.2,0.6-0.6c0-1-1.1-1.8-2.2-1.5c-0.3,0.1-0.6,0.1-0.9,0.3c-0.4,0.3-0.7,0.2-1-0.1c-0.7-0.5-0.7-0.8,0.1-1.2
		c1.4-0.7,2.8-0.8,4.3-0.1c0.9,0.4,1.4,1.3,1.4,2.3C-80.7,406.1-80.8,407-80.8,407.9C-80.8,407.9-80.8,407.9-80.8,407.9z
		 M-83.8,407.5C-83.8,407.5-83.8,407.5-83.8,407.5c-0.4,0-0.8,0-1.2,0c-0.7,0.1-1,0.4-1.1,1.1c0,0.6,0.5,1.1,1.1,1.2
		c0.6,0.1,1.2,0.1,1.8,0c0.4-0.1,0.7-0.2,0.8-0.6C-82.1,407.7-82.3,407.5-83.8,407.5C-83.7,407.5-83.8,407.5-83.8,407.5z"/>
	<path class="st0" d="M-98.5,407.9c0,0.8,0,1.6,0,2.4c0,0.3,0.2,0.7-0.2,0.8c-0.5,0.1-1.1,0.3-1.4-0.1c-0.3-0.3-0.4-0.2-0.6-0.1
		c-1.3,0.5-2.5,0.4-3.7-0.2c-0.4-0.2-0.6-0.6-0.7-1c-0.1-0.5-0.2-1.1-0.1-1.7c0.2-1.2,1-1.9,2.2-1.9c0.6,0,1.3,0,1.9,0
		c0.3,0,0.8,0.2,0.9-0.2c0.1-0.4,0.1-0.9-0.2-1.3c-0.5-0.6-1.3-0.8-2.3-0.4c-0.6,0.2-1.2,0.5-1.8-0.1c-0.3-0.3-0.3-0.4-0.1-0.7
		c1.1-1,4-1.1,5.1-0.2c0.7,0.6,1,1.4,1,2.2C-98.5,406.3-98.5,407.1-98.5,407.9C-98.5,407.9-98.5,407.9-98.5,407.9z M-101.6,407.5
		C-101.6,407.5-101.6,407.5-101.6,407.5c-0.4,0-0.8,0-1.2,0c-0.8,0.1-1.2,0.7-0.9,1.5c0.2,0.6,0.6,0.8,1.2,0.8
		c0.8,0,1.7,0.3,2.3-0.5c0,0,0-0.1,0-0.1c0.3-1.2,0-1.6-1.2-1.6C-101.5,407.5-101.5,407.5-101.6,407.5z"/>
	<path class="st0" d="M-93,411.1c-1.1,0.1-2.1-0.1-3.1-0.7c-0.2-0.1-0.6-0.4-0.5-0.7c0.2-0.4,0.5-0.7,0.8-1c0.2-0.1,0.4,0.1,0.5,0.2
		c1.1,0.5,2.1,1,3.3,0.5c0.5-0.2,0.9-0.5,0.9-1.1c-0.1-0.6-0.6-0.8-1.1-0.8c-0.9-0.1-1.8-0.1-2.7-0.3c-0.9-0.3-1.4-0.8-1.5-1.6
		c0-1.1,0-2.2,1.2-2.7c1.7-0.8,3.4-0.5,5,0.2c0.3,0.1,0.8,0.3,0.5,0.7c-0.3,0.4-0.4,1.1-1.2,0.8c-0.5-0.2-0.9-0.4-1.4-0.5
		c-0.6-0.2-1.2-0.1-1.7,0.1c-0.6,0.2-0.6,0.6-0.6,1.1c0,0.5,0.5,0.6,0.8,0.6c0.7,0.1,1.5,0.1,2.2,0.2c1,0.1,1.8,0.7,2,1.6
		c0.4,2-0.5,3.2-2.6,3.4C-92.4,411.2-92.7,411.1-93,411.1z"/>
	<path class="st1" d="M8.6,392c0,1.6-0.9,3.1-2,3.4c-1.8,0.6-3.4-0.2-4-2c-0.7-2,0.1-3.8,2.1-4.7c1.1-0.5,2.5,0,3.3,1.1
		C8.4,390.5,8.7,391.3,8.6,392z M4.3,392c0,1,0.5,1.7,1.2,1.7c0.5,0,1.2-1,1.2-1.7c0-0.7-0.7-1.5-1.2-1.5
		C4.9,390.5,4.3,391.2,4.3,392z"/>
	<path class="st1" d="M56.3,408.4c0-1.4,0-2.8,0-4.2c0-0.5,0.2-0.7,0.7-0.7c0.4,0,0.7,0.2,0.7,0.6c0,2.1,0,4.1,0,6.2
		c0,0.3,0,0.6-0.4,0.6c-0.5,0-1,0.2-1.4-0.4c-0.9-1.3-1.8-2.6-2.7-3.9c-0.1-0.1-0.1-0.4-0.5-0.4c0,1.3,0,2.6,0,3.8
		c0,0.6-0.2,0.9-0.8,0.9c-0.7,0-0.7-0.4-0.6-0.9c0-1.9,0-3.8,0.1-5.7c0-0.3-0.1-0.7,0.3-0.8c0.5,0,1-0.2,1.4,0.3
		c1.1,1.5,2.1,3,3.2,4.6C56.2,408.4,56.3,408.4,56.3,408.4z"/>
	<path class="st1" d="M-45,408.5c0-1.1,0-2,0-3c0-0.5,0-1,0-1.4c0-0.4,0.1-0.7,0.7-0.7c0.6,0,0.6,0.3,0.6,0.7c0,1.9,0,3.8,0,5.7
		c0,0.3,0.3,0.9-0.3,0.9c-0.5,0.1-1.1,0.2-1.5-0.4c-0.6-0.9-1.2-1.9-1.9-2.8c-0.4-0.6-0.7-1.2-1.3-1.8c0,1.6,0,3,0,4.3
		c0,0.3,0,0.7-0.5,0.7c-0.6,0.1-0.9-0.1-0.8-0.7c0-1.9,0-3.8,0-5.6c0-0.3-0.2-0.8,0.4-0.9c0.5-0.1,1-0.1,1.4,0.4
		c0.9,1.4,1.9,2.7,2.9,4C-45.4,408.1-45.3,408.2-45,408.5z"/>
	<path class="st1" d="M-19.8,408.9c-0.1-0.6,0.3-1.2,0.9-1.6c0.3-0.3,0.5-0.5,0.1-0.9c-0.7-0.7-0.6-1.7,0.1-2.4
		c0.8-0.9,3.2-0.7,3.5,0.7c0.2,0.6-0.1,1.5-0.8,2c-0.6,0.4-0.4,0.6,0,0.9c0.1,0.1,0.3,0.2,0.5,0.3c0.8,0.6,0.8,0.6,1.4-0.2
		c0.3-0.4,0.6-0.3,0.9-0.1c0.3,0.2,0.4,0.5,0.2,0.8c-0.1,0.2-0.2,0.3-0.3,0.4c-0.4,0.4-0.3,0.8,0.2,1.1c0.3,0.2,0.6,0.4,0.2,0.8
		c-0.4,0.4-0.8,0.4-1.1,0c-0.4-0.6-0.8-0.4-1.3-0.1c-1.1,0.6-2.2,0.7-3.3,0.3C-19.5,410.4-19.8,409.9-19.8,408.9z M-17.1,409.9
		c0.4-0.1,0.7-0.1,1.1-0.2c0.3-0.1,0.6-0.3,0.1-0.7c-0.4-0.3-0.8-0.7-1.2-1c-0.4-0.4-0.7-0.3-1,0.1c-0.3,0.4-0.5,0.8-0.3,1.2
		C-18.1,409.8-17.6,409.9-17.1,409.9z M-17.1,404.5c-0.6,0-1,0.2-1,0.7c0,0.5,0.3,1,0.8,0.9c0.5,0,0.8-0.4,0.8-0.9
		C-16.4,404.7-16.7,404.5-17.1,404.5z"/>
	<path class="st1" d="M-54.5,407.3c0,3-2.7,4.7-5.4,3.3c-1.2-0.6-1.6-1.8-1.7-3.1c-0.1-2.5,1.2-4.3,3.9-4.2c1.7,0.1,3.1,1.4,3.2,3.1
		C-54.5,406.8-54.5,407-54.5,407.3z M-56,407.2c0-0.2,0-0.5,0-0.7c-0.1-1-0.8-1.9-1.7-1.9c-1.4-0.1-2.1,0.4-2.4,1.6
		c-0.2,0.7-0.1,1.4,0,2c0.2,0.9,0.8,1.5,1.6,1.6c1.2,0.1,1.8-0.2,2.3-1.1C-56,408.2-55.9,407.7-56,407.2z"/>
	<path class="st1" d="M42.8,406.9c-0.1-0.7,0.1-1.5,0.7-2.2c1.4-1.8,4.3-1.9,5.8-0.1c0.9,1.1,0.9,4,0,5.2c-1,1.2-3.4,1.6-4.8,0.8
		C43.1,409.8,42.8,408.5,42.8,406.9z M44.3,407.3c-0.1,0.6,0.1,1.2,0.4,1.8c0.4,0.7,1,0.9,1.8,0.8c0.7-0.1,1.5-0.3,1.8-1
		c0.4-0.9,0.5-1.9,0.2-2.8c-0.2-0.7-0.6-1.3-1.3-1.4c-0.8-0.1-1.7-0.2-2.3,0.6C44.4,405.9,44.2,406.5,44.3,407.3z"/>
	<path class="st1" d="M-9.1,407.2c0-1,0-2,0-3c0-0.3,0-0.6,0.4-0.6c1.4,0,2.8-0.1,4.1,0.4c0.8,0.3,1.3,0.9,1.6,1.6
		c0.8,1.9,0,4.3-1.9,5c-1.2,0.5-2.5,0.4-3.8,0.3c-0.4,0-0.3-0.3-0.3-0.6C-9.1,409.2-9.1,408.2-9.1,407.2
		C-9.1,407.2-9.1,407.2-9.1,407.2z M-7.7,407.2C-7.7,407.2-7.7,407.2-7.7,407.2c0,0.7,0,1.4,0,2.1c0,0.2,0,0.4,0.2,0.5
		c0.8,0.3,2.7-0.5,3-1.3c0.9-2.2-0.3-3.9-2.7-3.8c-0.5,0-0.6,0.2-0.6,0.6C-7.7,405.9-7.7,406.6-7.7,407.2z"/>
	<path class="st1" d="M14.6,403.4c2.3,0.1,3.5,1.3,3.5,3.9c0,2.6-1.4,3.7-3.7,3.7c-2.2,0-3.5-1.5-3.5-3.8
		C10.9,404.9,12.4,403.4,14.6,403.4z M12.4,407.3c-0.1,0.6,0.1,1.1,0.4,1.6c0.4,0.8,1.2,0.9,2,0.9c0.7,0,1.3-0.3,1.7-0.9
		c0.4-0.7,0.5-1.6,0.3-2.4c-0.2-0.9-0.5-1.7-1.5-1.9c-0.9-0.2-1.8-0.2-2.4,0.7C12.5,405.9,12.3,406.6,12.4,407.3z"/>
	<path class="st1" d="M-35.9,407.2c0-1,0-1.9,0-2.9c0-0.6,0.2-0.8,0.8-0.8c0.9,0,1.8,0,2.6,0.1c0.9,0.1,1.7,0.7,1.8,1.4
		c0.2,1.1-0.1,2.1-1,2.6c-0.5,0.2-0.5,0.4-0.2,0.8c0.5,0.6,0.9,1.2,1.4,1.8c0.3,0.4,0.2,0.5-0.3,0.6c-0.6,0-1-0.1-1.4-0.6
		c-0.4-0.6-0.9-1.2-1.3-1.8c-0.2-0.3-0.5-0.4-0.8-0.3c-0.4,0.1-0.2,0.4-0.2,0.6c0,0.5,0,1,0,1.4c0,0.4-0.2,0.7-0.6,0.6
		c-0.4,0-0.9,0.1-0.8-0.6C-35.9,409.3-35.9,408.2-35.9,407.2C-35.9,407.2-35.9,407.2-35.9,407.2z M-34.4,405.8c0,1.3,0,1.3,0.9,1.3
		c1.1,0,1.5-0.4,1.5-1.2c0-0.8-0.5-1.1-1.6-1.2C-34.8,404.5-34.3,405.3-34.4,405.8z"/>
	<path class="st1" d="M19.5,407.2c0-1,0-2,0-3c0-0.5,0.1-0.7,0.7-0.7c0.9,0.1,1.8,0,2.7,0.1c1,0.1,1.8,1,1.9,1.8
		c0.2,0.9-0.3,1.8-1.2,2.3c-0.5,0.2-0.2,0.5-0.1,0.7c0.4,0.6,0.9,1.3,1.4,1.9c0.3,0.4,0.2,0.5-0.3,0.5c-0.6,0-1.1-0.1-1.4-0.7
		c-0.4-0.6-0.9-1.2-1.3-1.8c-0.2-0.3-0.5-0.3-0.8-0.2c-0.3,0-0.3,0.3-0.3,0.5c0,0.5,0,1.1,0,1.6c0,0.5-0.3,0.6-0.8,0.6
		c-0.4,0-0.7-0.1-0.7-0.6C19.5,409.2,19.5,408.2,19.5,407.2C19.5,407.2,19.5,407.2,19.5,407.2z M20.9,405.8c0.2,0.4-0.5,1.2,0.7,1.2
		c1.2,0,1.8-0.5,1.8-1.3c0-0.8-0.6-1.1-1.7-1.2C20.6,404.5,21,405.3,20.9,405.8z"/>
	<path class="st1" d="M13.3,391.6c-0.1,1.5,0.2,3-0.6,4.5c-0.8,1.4-1.9,2.2-3.5,2.5c-0.3,0.1-0.5-0.1-0.6-0.4
		c-0.4-1-0.3-1.2,0.7-1.7c1.3-0.6,2-1.5,2-2.9c0-1.5,0-3.1,0-4.6c0-0.9,0.5-0.8,1.1-0.8c0.6,0,1.1,0,1,0.8
		C13.2,389.9,13.3,390.7,13.3,391.6z"/>
	<path class="st1" d="M-63.2,391.6c0,0.8,0,1.7,0,2.5c-0.1,2-1.7,4.1-3.8,4.5c-0.4,0.1-0.7,0-0.8-0.5c-0.4-1.2-0.4-1.2,0.7-1.6
		c1.3-0.5,1.9-1.3,1.9-2.7c0-1.6,0-3.1,0-4.7c0-0.9,0.1-0.9,1.1-0.9c0.7,0,1,0.2,0.9,0.9C-63.3,389.9-63.2,390.8-63.2,391.6
		C-63.2,391.6-63.2,391.6-63.2,391.6z"/>
	<path class="st1" d="M31.8,410.9c-0.5,0-0.7-0.2-0.9-0.7c-0.4-1.2-0.4-1.2-1.8-1.2c0,0-0.1,0-0.1,0c-1.6,0-1.6,0-2.1,1.4
		c-0.1,0.4-1,0.6-1.3,0.4c-0.2-0.1-0.1-0.3,0-0.5c0.8-2,1.6-4,2.3-6c0.2-0.6,0.5-0.8,1.2-0.8c0.6,0,0.8,0.3,1,0.8
		c0.7,1.9,1.5,3.8,2.2,5.6C32.7,410.7,32.6,410.9,31.8,410.9z M29,407.8c1.2,0,1.1,0,0.7-1.1c-0.1-0.3-0.2-0.7-0.4-1
		c-0.1-0.2,0-0.5-0.3-0.5c-0.3,0-0.3,0.3-0.3,0.5c-0.1,0.4-0.3,0.7-0.4,1.1C28,407.7,28,407.8,29,407.8z"/>
	<path class="st0" d="M-119.3,404.4c0-1.5,0-3,0-4.5c0-0.9,0.6-0.5,1.1-0.6c0.5-0.1,0.7,0.1,0.7,0.6c0,2.9,0,5.7,0,8.6
		c0,0.7,0.1,1,0.9,1c0.9,0,0.4,0.6,0.5,1c0.1,0.4,0,0.6-0.5,0.7c-1.7,0.1-2.6-0.7-2.6-2.4C-119.3,407.3-119.3,405.9-119.3,404.4z"/>
	<path class="st1" d="M-42.1,407.2c0-1,0-2,0-3c0-0.5,0.1-0.6,0.6-0.6c1.2,0,2.4,0,3.7,0c0.4,0,0.6,0.1,0.7,0.5
		c0,0.5-0.3,0.6-0.7,0.6c-0.7,0-1.5,0-2.2,0c-0.4,0-0.6,0.1-0.6,0.5c0,0.1,0,0.3,0,0.4c-0.1,1,0,1,1,1c0.4,0,0.9,0,1.3,0
		c0.3,0,0.6,0,0.6,0.5c0,0.4-0.1,0.7-0.6,0.6c-0.4,0-0.7,0-1.1,0c-0.4,0-0.9-0.2-1.1,0.2c-0.2,0.5-0.1,1.1,0,1.6
		c0.1,0.3,0.4,0.3,0.7,0.3c0.7,0,1.5,0,2.2,0c0.4,0,0.6,0,0.6,0.5c0,0.4-0.1,0.6-0.5,0.6c-1.3,0-2.6,0-3.9,0c-0.4,0-0.5-0.2-0.5-0.6
		C-42.1,409.3-42.1,408.2-42.1,407.2C-42.1,407.2-42.1,407.2-42.1,407.2z"/>
	<path class="st1" d="M-8.5,389.9c0,1.6,0,3.1,0,4.7c0,0.8-0.5,0.8-1,0.8c-0.5,0-0.9,0-0.9-0.8c0-3.1,0-6.2,0-9.4
		c0-0.6,0.2-0.8,0.7-0.7c0.2,0,0.4,0,0.5,0c0.5-0.1,0.7,0.2,0.6,0.7C-8.5,386.7-8.5,388.3-8.5,389.9z"/>
	<path class="st1" d="M1,410.9c-0.6,0-1.2,0-1.9,0c-0.5,0-0.6-0.2-0.6-0.6c0-2,0.1-3.9,0-5.9c0-0.6,0.2-0.8,0.8-0.8
		c1.1,0,2.3,0,3.4,0c0.5,0,0.6,0.2,0.6,0.6c0,0.4-0.2,0.5-0.6,0.5c-0.8,0-1.6,0-2.3,0c-0.4,0-0.5,0.1-0.6,0.5
		c-0.1,1.4-0.1,1.4,1.4,1.4c0.3,0,0.7,0,1,0c0.3,0,0.6,0,0.6,0.5c0,0.3-0.1,0.6-0.6,0.6c-0.6,0-1.3,0-1.9,0c-0.3,0-0.5,0.1-0.5,0.4
		c0,0.1,0,0.1,0,0.2c0,0.5-0.1,1.1,0.1,1.5c0.2,0.3,0.9,0,1.3,0c0.5,0.1,1,0,1.6,0c0.4,0,0.6,0.1,0.6,0.5c0,0.4-0.2,0.6-0.6,0.6
		C2.3,410.9,1.6,410.9,1,410.9C1,410.9,1,410.9,1,410.9z"/>
	<path class="st1" d="M5.8,407.2c0,0.5,0.1,0.9,0.2,1.4c0.5,1.3,2,1.4,3.1,1c0.4-0.2,0.8-0.3,1,0.2c0.2,0.6-0.1,0.7-0.5,0.8
		c-0.7,0.2-1.5,0.3-2.2,0.3c-1,0-1.8-0.5-2.4-1.3c-0.9-1.2-1-4.2,0.6-5.5c1.2-1,3-1,4.3-0.3c0.4,0.2,0.3,0.4,0.2,0.7
		c-0.2,0.3-0.3,0.5-0.7,0.2c-0.6-0.4-1.3-0.3-2-0.2c-0.7,0.1-1.5,0.9-1.5,1.8C5.8,406.7,5.8,406.9,5.8,407.2z"/>
	<path class="st1" d="M-26.4,406.7c0.4-1.2,1.2-1.9,1.7-2.9c0.2-0.3,1.1-0.5,1.4-0.3c0.3,0.2,0.1,0.4-0.1,0.6c-0.6,1-1.2,2-1.9,3
		c-0.7,1-0.4,2-0.4,3c0,0.5-0.2,0.7-0.7,0.7c-0.5,0-0.8-0.1-0.7-0.7c0.3-1.8-0.4-3.2-1.4-4.6c-0.3-0.4-0.6-1-0.9-1.4
		c-0.3-0.5-0.1-0.6,0.4-0.6c0.5,0,0.9,0.1,1.2,0.7C-27.5,405-27,405.7-26.4,406.7z"/>
	<path class="st1" d="M35.4,407.8c0-0.8,0-1.6,0-2.4c0-0.5-0.2-0.6-0.6-0.6c-0.4,0-0.8-0.1-1.2-0.1c-0.4,0-0.6,0-0.6-0.5
		c0-0.4,0.1-0.7,0.6-0.7c1.7,0,3.4,0,5.1,0c0.4,0,0.5,0.2,0.5,0.5c0,0.3,0,0.6-0.4,0.6c-0.4,0-0.9,0-1.3,0c-0.5,0-0.7,0.2-0.7,0.7
		c0,1.5,0,2.9,0,4.4c0,0.3,0,0.5-0.1,0.8c-0.2,0.4-0.5,0.3-0.8,0.3c-0.3,0-0.3-0.3-0.3-0.5C35.4,409.5,35.4,408.6,35.4,407.8
		C35.4,407.8,35.4,407.8,35.4,407.8z"/>
	<path class="st1" d="M-62.8,406.6c0,0.8,0,1.6,0,2.4c0,1-0.8,1.8-1.8,1.9c-0.7,0.1-1.4,0.1-2.1-0.2c-0.3-0.1-0.7-0.2-0.5-0.8
		c0.2-0.4,0.4-0.7,1-0.4c1.4,0.5,2,0.1,2-1.4c0-1.3,0-2.6,0-3.9c0-0.5,0.1-0.8,0.7-0.8c0.6,0,0.7,0.3,0.7,0.8
		C-62.8,405-62.8,405.8-62.8,406.6C-62.8,406.6-62.8,406.6-62.8,406.6z"/>
	<path class="st1" d="M-51.8,407.3c0,1,0,2,0,3c0,0.5-0.2,0.6-0.7,0.6c-0.5,0-0.7-0.1-0.7-0.6c0-2.1,0-4.1,0-6.2
		c0-0.5,0.3-0.5,0.7-0.5c0.4,0,0.7,0.1,0.7,0.6C-51.8,405.2-51.8,406.2-51.8,407.3C-51.8,407.3-51.8,407.3-51.8,407.3z"/>
	<path class="st1" d="M40.2,407.1c0-1,0-2,0-3c0-0.4,0.1-0.7,0.6-0.7c0.5,0,0.7,0.1,0.7,0.6c0,2,0,4,0,6.1c0,0.5-0.2,0.7-0.7,0.7
		c-0.5,0-0.6-0.2-0.6-0.6C40.2,409.2,40.2,408.2,40.2,407.1C40.2,407.1,40.2,407.1,40.2,407.1z"/>
	<path class="st0" d="M-85.5,397.7c0-1.3,0-1.3,1.3-1.3c1.4,0,1.4,0,1.4,1.4c0,1.2,0,1.2-1.2,1.2c-0.1,0-0.1,0-0.2,0
		C-85.5,399-85.5,399-85.5,397.7z"/>
	<path class="st1" d="M45.3,387.7c-0.8,0.2-0.9-0.2-1-0.9c0-0.7,0.3-0.8,0.9-0.8c0.6,0,1.2-0.1,1.1,0.9
		C46.3,387.7,45.9,387.8,45.3,387.7z"/>
	<path class="st1" d="M6.4,387.9c-0.5,0-0.8-0.4-0.8-0.9c0-0.5,0.2-0.9,0.9-0.9c0.7,0,1,0.4,1,1C7.5,387.6,7.2,387.9,6.4,387.9z"/>
	<path class="st1" d="M5.2,387c0,0.6-0.3,0.9-1.1,0.9c-0.5,0-0.8-0.4-0.8-0.9c0-0.5,0.2-0.9,0.8-0.9C4.8,386,5.2,386.4,5.2,387z"/>
	<path class="st1" d="M-26.1,396c0.7-0.1,1,0.3,1,0.9c0,0.8-0.2,0.9-1.3,0.9c-0.7,0-0.5-0.5-0.5-0.9C-27,396.2-26.8,395.8-26.1,396z
		"/>
	<path class="st1" d="M35.7,397.6c-0.9,0.2-0.8-0.4-0.8-1c0-0.7,0.5-0.7,1-0.7c0.9,0,0.8,0.6,0.8,1.2
		C36.6,397.8,36.2,397.7,35.7,397.6z"/>
	<path class="st1" d="M-28.3,397.6c-0.7,0.1-0.9-0.1-0.9-0.8c0-0.7,0.3-0.9,1-0.9c0.8,0,0.8,0.4,0.8,0.9
		C-27.4,397.5-27.7,397.8-28.3,397.6z"/>
	<path class="st1" d="M-136.5,391.7c-0.2-0.6-0.1-1.2-0.1-1.7c0-2,0-4.1,0-6.1c0.2,0.2,0.1,0.4,0.1,0.7
		C-136.4,386.9-136.5,389.3-136.5,391.7z"/>
	<path class="st1" d="M-132.3,389.4c0,0.9,0,1.7,0,2.6c0,0.6-0.2,0.7-0.8,0.6c0.4-0.1,0.6-0.3,0.6-0.8
		C-132.3,391-132.6,390.2-132.3,389.4z"/>
	<path class="st1" d="M-132.1,389.4c-0.1,0-0.1,0-0.2,0C-132.2,389.2-132.1,389.3-132.1,389.4z"/>
	<path class="st1" d="M-136.4,392.3C-136.5,392.2-136.5,392.2-136.4,392.3c-0.1-0.1,0-0.1,0-0.1
		C-136.4,392.2-136.4,392.2-136.4,392.3z"/>
</g>
</svg>
